<mxfile host="app.diagrams.net" modified="2023-04-12T07:36:04.447Z" agent="Mozilla/5.0 (Windows NT 10.0; Win64; x64) AppleWebKit/537.36 (KHTML, like Gecko) Chrome/111.0.0.0 Safari/537.36" version="21.1.5" etag="ZYWst8mO7fdZ7SUfmm88" type="github">
  <diagram name="第 1 页" id="Dab2a1LjcUQ4oU9OPVzg">
    <mxGraphModel>
      <root>
        <mxCell id="0" />
        <mxCell id="1" parent="0" />
      </root>
    </mxGraphModel>
  </diagram>
</mxfile>
